<svg width="151" height="63" viewBox="0 0 151 63" fill="none" xmlns="http://www.w3.org/2000/svg">
<g clip-path="url(#clip0_7322_559)">
<g clip-path="url(#clip1_7322_559)">
<path d="M52.8877 22.9887C52.7711 26.6267 54.6049 28.2378 54.6502 29.2609C54.6286 29.4692 54.5571 29.6693 54.4415 29.8445C54.326 30.0197 54.1698 30.1649 53.986 30.268L51.9125 31.7072C51.6442 31.8937 51.3279 32.0007 51.0005 32.0156C50.9308 32.0124 49.6738 32.3095 47.6829 27.9021C46.4682 29.4054 44.9227 30.6133 43.1648 31.4332C41.4068 32.2531 39.4829 32.6633 37.5404 32.6324C34.9032 32.7753 27.756 31.1483 28.1237 23.6038C27.8662 17.4552 33.6413 13.6357 39.614 13.9585C40.7641 13.9617 43.113 14.0179 47.2261 14.9656V12.4567C47.6618 8.20665 44.8447 4.90908 39.9671 5.4038C39.5783 5.4054 36.8244 5.32349 32.5413 7.02768C31.349 7.57058 31.1968 7.48064 30.7999 7.48064C29.5995 7.48064 30.0936 4.03048 30.3236 3.59359C31.1676 2.56561 36.1327 0.64618 41.0055 0.673486C44.2636 0.387784 47.5042 1.3848 50.0269 3.44903C51.0524 4.58636 51.8347 5.91798 52.3267 7.36347C52.8187 8.80895 53.0101 10.3383 52.8894 11.8592L52.8877 22.9887ZM38.8882 28.1912C44.1417 28.1157 46.3659 24.9836 46.8729 23.2971C47.2714 21.6828 47.205 20.6613 47.205 18.896C45.6385 18.5234 43.3836 18.117 40.7965 18.1138C38.3423 17.9307 33.8599 19.0181 34.0349 23.2955C33.834 25.9923 35.8363 28.339 38.8882 28.1912ZM66.5762 31.8935C65.3029 32.0092 64.71 31.1129 64.5221 30.2279L56.4548 3.78152C56.2977 3.33499 56.194 2.874 56.1438 2.40338C56.114 2.20936 56.1632 2.01155 56.2804 1.85343C56.3977 1.69531 56.5734 1.58982 56.7691 1.56012C56.808 1.55369 56.4241 1.56012 60.3735 1.56012C61.7958 1.41877 62.2591 2.52867 62.4065 3.22577L68.1929 25.8461L73.5646 3.22577C73.6505 2.70856 74.0409 1.44768 75.6381 1.581H78.4179C78.7695 1.55209 80.2177 1.50069 80.472 3.24665L85.8859 26.1561L91.8586 3.24665C91.9363 2.89649 92.2992 1.42038 93.9127 1.581H97.1072C97.2449 1.56012 98.1034 1.45089 97.9576 2.95913C97.888 3.25628 98.51 1.24691 89.4125 30.2488C89.2262 31.1338 88.6317 32.0301 87.3584 31.9144H84.3307C82.5585 32.0991 82.3042 30.3628 82.2766 30.1877L76.9049 8.16167L71.5948 30.1652C71.5689 30.3403 71.3145 32.0766 69.5407 31.8919H66.5762V31.8935ZM110.878 32.7978C109.926 32.7994 105.383 32.7496 101.586 30.8238C101.208 30.665 100.886 30.3984 100.661 30.0578C100.435 29.7173 100.317 29.318 100.321 28.9108V27.1841C100.321 25.8269 101.325 26.0758 101.752 26.238C103.378 26.8902 104.421 27.3849 106.419 27.78C112.356 28.9895 114.967 27.4106 115.607 27.0604C117.737 25.806 117.906 22.9357 116.457 21.4467C114.76 20.0348 113.95 19.9818 107.851 18.0736C107.099 17.8664 100.771 15.8876 100.757 9.66349C100.658 5.12753 104.815 0.639755 112.019 0.676698C114.071 0.675092 119.54 1.34007 121.021 3.18561C121.239 3.52131 121.348 3.91644 121.332 4.31639V5.94027C121.332 6.65343 121.069 7.01001 120.543 7.01001C119.294 6.87188 117.078 5.21587 112.579 5.28333C111.463 5.22551 106.117 5.4295 106.357 9.29406C106.287 12.3394 110.668 13.4815 111.168 13.6132C117.075 15.3752 119.049 15.6675 121.393 18.3644C124.17 21.9382 122.673 26.1224 122.098 27.2692C119.007 33.2909 111.014 32.801 110.878 32.7978ZM117.39 49.6406C106.046 57.948 89.5777 62.3699 75.5166 62.3699C56.544 62.494 38.2108 55.5768 24.1209 42.978C23.0631 42.032 23.9961 40.7358 25.2824 41.457C40.9123 50.3219 58.6086 54.9799 76.615 54.9685C90.0616 54.897 103.362 52.1922 115.751 47.0097C117.659 46.2065 119.278 48.2625 117.39 49.6406ZM122.119 44.2935C120.668 42.4432 112.516 43.4294 108.866 43.8615C107.766 43.9851 107.58 43.0391 108.576 42.3404C115.067 37.8157 125.728 39.1119 126.953 40.633C128.176 42.1541 126.621 52.7455 120.544 57.805C119.611 58.5873 118.719 58.1745 119.133 57.1465C120.501 53.7333 123.57 46.1455 122.119 44.2935Z" fill="#737373"/>
</g>
</g>
<defs>
<clipPath id="clip0_7322_559">
<rect width="151" height="62" fill="white" transform="translate(0 0.5)"/>
</clipPath>
<clipPath id="clip1_7322_559">
<rect width="104" height="62" fill="white" transform="translate(23.5 0.5)"/>
</clipPath>
</defs>
</svg>
